<svg xmlns="http://www.w3.org/2000/svg" viewBox="0 0 1920 1085"><defs><style>.cls-1{fill:#fff;}.cls-2,.cls-3{fill:none;}.cls-3{stroke:#707070;}.cls-4{fill:#bc8500;}.cls-5{fill:#00937a;}.cls-6{fill:#ee5e43;}.cls-7{fill:#00c5a4;}.cls-8{fill:#ffa800;}.cls-9{fill:#5743ee;}.cls-10{fill:#c80101;}</style></defs><g id="Layer_2" data-name="Layer 2"><g id="Layer_1-2" data-name="Layer 1"><g id="Group_54" data-name="Group 54"><g id="Group_53" data-name="Group 53"><g id="Rectangle_9" data-name="Rectangle 9"><rect class="cls-1" y="6" width="1920" height="1079"/><polyline class="cls-2" points="1919.5 819 1919.5 1084.5 0.5 1084.5 0.5 6.5 1919.5 6.5 1919.5 52.83"/><line class="cls-2" x1="1919.5" y1="220.17" x2="1919.5" y2="1084.5"/><line class="cls-3" x1="1919.5" y1="52.83" x2="1919.5" y2="220.17"/></g></g><path id="Polygon_2" data-name="Polygon 2" class="cls-4" d="M291.75,539,372.5,675.5,291.75,812H130.25L49.5,675.5,130.25,539Z"/><path id="Polygon_4" data-name="Polygon 4" class="cls-5" d="M453.25,812,534,948.5,453.25,1085H291.75L211,948.5,291.75,812Z"/><g id="Group_52" data-name="Group 52"><path id="Polygon_3" data-name="Polygon 3" class="cls-6" d="M1919.5,220.17,1888.25,273h-161.5L1646,136.5,1726.75,0h161.5l31.25,52.83"/><path id="Polygon_8" data-name="Polygon 8" class="cls-7" d="M1919.5,765.13,1888.13,818H1726L1645,681.46,1726,545h162.11L1920,598.63"/><path id="Polygon_6" data-name="Polygon 6" class="cls-8" d="M1726.25,273,1807,409.5,1726.25,546h-161.5L1484,409.5,1564.75,273Z"/><path class="cls-9" d="M1919.49,545h-32l-81.83-136,81.83-136H1920"/><path class="cls-10" d="M.5,812H130.06L211,948.5,130.06,1085H0"/></g></g></g></g></svg>